<?xml version="1.0" standalone="no"?>
<!DOCTYPE svg PUBLIC "-//W3C//DTD SVG 20010904//EN"
 "http://www.w3.org/TR/2001/REC-SVG-20010904/DTD/svg10.dtd">
<svg version="1.0" xmlns="http://www.w3.org/2000/svg"
 width="2048.000000pt" height="2048.000000pt" viewBox="0 0 2048.000000 2048.000000"
 preserveAspectRatio="xMidYMid meet">

<g transform="translate(0.000000,2048.000000) scale(0.100000,-0.100000)"
fill="#000000" stroke="none">
<path d="M0 18660 c0 -1207 3 -1820 10 -1820 6 0 10 28 10 63 0 34 7 106 15
160 8 54 14 101 13 105 -1 4 1 14 4 22 12 32 28 123 28 156 0 19 5 34 10 34 6
0 10 11 10 24 0 13 12 66 26 117 14 52 27 101 28 109 2 8 6 22 10 31 4 9 8 27
10 40 2 13 8 37 15 52 6 16 11 35 11 43 0 8 5 14 10 14 6 0 10 11 10 23 0 13
7 38 15 55 9 17 18 41 20 54 5 25 8 33 51 123 15 33 28 63 29 67 0 3 3 10 7
14 5 4 8 14 8 22 0 9 7 23 16 33 8 9 17 23 18 31 1 7 12 34 24 60 12 26 22 52
22 57 0 6 4 11 8 11 5 0 22 26 37 58 16 31 32 59 35 62 3 3 22 38 43 78 21 40
56 97 78 125 21 29 39 58 39 65 0 6 5 12 10 12 6 0 10 4 10 10 0 9 11 24 45
64 6 6 17 23 25 38 16 27 56 78 109 137 17 19 31 39 31 43 0 5 17 27 38 50
116 126 244 259 290 303 30 27 76 71 104 98 27 26 54 47 58 47 5 0 10 3 12 8
6 13 185 152 197 152 6 0 11 5 11 10 0 6 7 10 15 10 9 0 18 7 21 15 4 8 12 15
20 15 8 0 14 4 14 10 0 5 19 19 43 31 23 12 44 24 47 28 9 11 79 61 85 61 4 0
19 9 35 20 15 11 29 17 32 15 3 -3 13 4 23 15 10 11 24 20 32 20 7 0 13 3 13
8 0 4 27 20 60 35 33 16 60 33 60 39 0 5 6 8 13 5 6 -2 23 4 37 13 14 9 46 25
73 35 26 10 47 22 47 26 0 5 6 9 13 9 7 0 28 8 47 19 19 10 50 22 68 25 17 4
32 12 32 18 0 6 7 7 15 4 9 -3 18 1 22 10 3 8 12 13 19 10 7 -3 16 -1 19 4 3
4 23 11 45 15 22 4 42 11 46 16 3 5 16 9 30 9 13 0 24 3 24 8 0 4 26 13 58 21
31 7 62 16 67 20 11 9 148 43 180 46 11 1 27 4 35 7 56 20 90 28 116 28 17 0
34 4 40 9 5 5 34 12 64 15 30 3 80 11 110 17 30 6 110 16 177 22 67 7 125 15
129 20 4 4 -812 7 -1814 7 l-1822 0 0 -1820z"/>
<path d="M16850 20471 c0 -5 55 -12 123 -16 67 -4 127 -11 132 -15 6 -5 20 -9
30 -9 28 -1 177 -26 195 -33 8 -4 35 -9 60 -13 75 -10 94 -15 132 -36 10 -5
24 -6 32 -3 8 3 25 0 38 -7 13 -7 36 -14 52 -16 16 -2 35 -8 42 -14 7 -6 26
-11 43 -11 17 -1 31 -5 31 -11 0 -5 6 -7 14 -4 8 3 22 -1 33 -8 10 -8 28 -15
40 -15 12 0 24 -4 27 -9 3 -5 22 -12 42 -16 20 -3 46 -10 58 -14 11 -5 26 -9
31 -11 6 -1 17 -8 26 -16 9 -8 18 -11 22 -8 3 4 13 -1 22 -10 9 -9 22 -16 29
-16 7 0 31 -9 54 -20 22 -11 46 -20 52 -20 5 0 10 -4 10 -10 0 -5 6 -10 13
-10 6 0 37 -13 67 -28 148 -77 216 -114 230 -127 8 -7 20 -14 25 -14 14 -2
130 -70 152 -90 10 -9 31 -23 47 -31 15 -8 38 -25 50 -37 11 -13 26 -23 32
-23 5 0 19 -8 30 -17 10 -10 38 -31 62 -47 24 -17 49 -37 55 -45 7 -9 29 -27
49 -41 21 -14 38 -28 38 -32 0 -5 7 -8 15 -8 8 0 15 -7 15 -15 0 -8 3 -15 8
-15 25 0 372 -344 452 -449 62 -81 133 -166 141 -169 5 -2 9 -9 9 -15 0 -7 20
-38 45 -69 25 -32 45 -62 45 -67 0 -6 6 -14 13 -18 6 -4 18 -18 25 -30 6 -13
18 -33 25 -45 6 -13 14 -25 17 -28 9 -9 29 -44 51 -87 12 -24 25 -43 29 -43 5
0 11 -14 15 -30 4 -17 12 -36 18 -43 16 -17 43 -63 69 -117 12 -25 25 -46 29
-48 5 -2 6 -9 3 -17 -3 -7 -1 -16 5 -20 6 -3 11 -15 11 -26 0 -10 5 -19 10
-19 6 0 10 -7 10 -15 0 -8 5 -15 10 -15 6 0 10 -6 8 -12 -1 -7 12 -44 30 -81
18 -38 32 -75 32 -83 0 -8 4 -14 8 -14 5 0 15 -26 22 -57 8 -32 22 -74 32 -93
10 -19 18 -45 18 -57 0 -13 5 -23 11 -23 6 0 9 -6 6 -14 -5 -13 12 -86 30
-126 3 -8 7 -19 8 -25 1 -5 3 -12 5 -15 1 -3 4 -14 5 -26 3 -26 34 -163 42
-184 4 -8 7 -32 9 -53 1 -21 7 -52 13 -70 6 -18 13 -54 17 -82 3 -27 8 -66 10
-85 2 -19 7 -74 10 -122 4 -49 11 -88 15 -88 5 0 9 807 9 1815 l0 1815 -1815
0 c-1025 0 -1815 -4 -1815 -9z"/>
<path d="M4710 13800 l0 -1550 1888 0 c1797 0 1887 0 1889 -17 2 -10 4 -1262
6 -2783 4 -2765 4 -2765 25 -2876 27 -144 98 -359 156 -474 56 -110 138 -238
214 -334 62 -78 82 -97 96 -89 5 4 6 2 3 -4 -8 -13 97 -114 198 -190 155 -117
305 -198 476 -258 155 -54 203 -65 399 -90 283 -36 650 23 901 146 46 23 93
45 105 49 22 9 181 110 211 134 10 8 44 36 76 61 32 26 54 51 51 57 -4 6 -2 8
4 5 9 -6 47 29 163 152 54 57 167 223 218 321 111 214 178 449 195 690 3 41 5
1296 6 2788 l0 2712 1890 0 1890 0 0 1550 0 1550 -5530 0 -5530 0 0 -1550z
m10084 393 c9 -59 5 -953 -4 -958 -5 -3 -828 -5 -1829 -5 l-1821 0 0 -1308 0
-1307 -96 -170 c-104 -184 -229 -402 -334 -585 -74 -128 -77 -133 -235 -415
-61 -110 -132 -236 -158 -280 -25 -44 -49 -92 -52 -108 -6 -24 29 -91 248
-475 570 -999 639 -1160 624 -1474 -5 -132 -24 -212 -76 -323 -194 -418 -627
-610 -1091 -487 -178 47 -357 184 -475 361 -158 238 -195 499 -111 779 34 110
148 363 228 502 14 25 50 92 80 150 31 58 65 121 77 140 11 19 24 42 28 50 4
8 43 78 88 155 96 165 202 350 240 420 16 28 47 79 69 115 l41 65 3 2097 2
2098 -2252 0 c-1239 0 -2263 0 -2275 0 l-23 0 0 500 0 500 4549 0 4549 0 6
-37z m-5201 -6238 c-3 -9 -8 -14 -10 -11 -3 3 -2 9 2 15 9 16 15 13 8 -4z
m1504 -437 c-3 -8 -6 -5 -6 6 -1 11 2 17 5 13 3 -3 4 -12 1 -19z"/>
<path d="M0 1820 l0 -1820 1805 0 c1197 0 1805 3 1805 10 0 6 -37 10 -90 10
-53 0 -90 4 -90 10 0 6 -30 10 -70 10 -40 0 -70 4 -70 10 0 6 -25 10 -55 10
-30 0 -63 4 -73 10 -9 5 -42 13 -72 19 -136 23 -186 36 -193 49 -6 8 -18 11
-32 8 -13 -3 -27 -2 -30 4 -3 5 -19 10 -35 10 -16 0 -31 4 -35 10 -3 5 -12 7
-20 3 -8 -3 -15 0 -15 6 0 6 -11 11 -25 11 -14 0 -25 5 -25 10 0 6 -11 8 -25
4 -15 -4 -25 -2 -25 5 0 6 -6 11 -12 11 -7 0 -25 6 -39 14 -14 7 -42 16 -62
20 -21 4 -37 11 -37 16 0 6 -11 10 -24 10 -13 0 -29 7 -36 15 -7 8 -21 15 -31
15 -10 0 -21 5 -24 10 -3 6 -15 10 -26 10 -10 0 -19 3 -19 8 0 8 -78 46 -96
47 -6 0 -18 5 -25 12 -8 6 -26 14 -42 18 -15 4 -27 11 -27 16 0 9 -81 49 -99
49 -6 0 -11 4 -11 9 0 5 -13 12 -30 16 -16 4 -30 10 -30 15 0 7 -70 50 -137
84 -13 6 -23 14 -23 19 0 4 -7 7 -15 7 -8 0 -15 4 -15 9 0 5 -8 12 -18 15 -10
4 -36 22 -58 41 -21 20 -51 41 -66 48 -16 6 -28 15 -28 19 0 5 -5 8 -11 8 -6
0 -30 16 -53 36 -22 19 -47 40 -54 46 -8 6 -46 36 -85 68 -74 59 -319 298
-417 406 -69 76 -182 218 -237 298 -24 33 -47 62 -53 64 -5 2 -10 8 -10 13 0
12 -51 91 -65 101 -5 4 -11 11 -11 15 -5 25 -18 53 -25 53 -5 0 -23 30 -40 68
-18 37 -47 90 -66 118 -18 28 -33 57 -33 65 0 8 -11 27 -25 43 -13 16 -27 44
-31 62 -3 19 -10 34 -15 34 -5 0 -9 9 -9 19 0 11 -7 26 -15 34 -8 9 -24 41
-36 74 -12 32 -25 63 -30 68 -4 6 -10 24 -13 40 -3 15 -9 31 -14 34 -5 3 -12
25 -16 49 -3 24 -10 51 -15 60 -16 29 -30 73 -35 104 -1 10 -5 21 -9 24 -4 4
-7 18 -7 30 0 13 -4 26 -10 29 -5 3 -10 16 -10 29 0 12 -3 26 -7 29 -3 4 -8
21 -10 39 -2 18 -8 37 -13 42 -6 6 -10 27 -10 47 0 21 -4 41 -10 44 -5 3 -10
26 -10 51 0 24 -4 44 -10 44 -6 0 -10 26 -10 59 0 33 -5 61 -10 63 -13 4 -31
137 -37 271 -2 53 -9 97 -14 97 -5 0 -9 -700 -9 -1820z"/>
<path d="M20456 3548 c-9 -163 -21 -265 -32 -279 -6 -8 -12 -31 -13 -52 -1
-20 -6 -49 -11 -63 -6 -14 -10 -40 -10 -59 0 -19 -5 -37 -10 -40 -6 -3 -7 -17
-4 -31 4 -14 2 -24 -5 -24 -6 0 -11 -11 -11 -24 0 -14 -4 -27 -9 -30 -5 -3
-12 -31 -16 -61 -3 -30 -11 -55 -17 -55 -5 0 -7 -7 -4 -16 4 -9 1 -23 -5 -30
-6 -8 -9 -22 -7 -32 3 -10 -1 -23 -8 -30 -7 -7 -11 -19 -8 -27 4 -8 1 -15 -5
-15 -6 0 -11 -11 -11 -25 0 -14 -4 -25 -9 -25 -5 0 -12 -22 -16 -50 -4 -27
-11 -52 -16 -56 -5 -3 -9 -13 -9 -23 0 -10 -6 -24 -14 -30 -8 -7 -17 -24 -20
-39 -4 -15 -15 -45 -26 -67 -11 -22 -24 -51 -30 -65 -5 -14 -14 -32 -20 -40
-5 -8 -19 -35 -30 -60 -11 -25 -25 -52 -30 -60 -6 -8 -14 -26 -20 -40 -5 -14
-15 -34 -22 -45 -46 -76 -55 -93 -61 -117 -4 -14 -18 -40 -32 -56 -14 -17 -25
-33 -25 -37 0 -4 -18 -32 -40 -64 -22 -31 -40 -61 -40 -67 0 -5 -9 -15 -20
-22 -11 -7 -20 -19 -20 -27 0 -8 -4 -15 -8 -15 -5 0 -15 -12 -23 -27 -8 -15
-26 -40 -41 -57 -16 -17 -28 -34 -28 -39 0 -9 -25 -40 -67 -82 -13 -12 -23
-25 -23 -29 0 -23 -436 -457 -512 -508 -12 -9 -39 -31 -58 -48 -19 -18 -61
-51 -95 -73 -33 -23 -78 -56 -101 -74 -23 -18 -45 -33 -50 -33 -5 0 -21 -11
-36 -25 -15 -14 -30 -25 -33 -25 -4 0 -21 -11 -39 -25 -18 -14 -36 -25 -40
-25 -4 0 -16 -9 -28 -20 -12 -11 -29 -20 -39 -20 -9 0 -22 -6 -28 -14 -6 -7
-55 -35 -109 -61 -53 -26 -104 -53 -112 -60 -8 -7 -36 -18 -62 -25 -27 -7 -48
-17 -48 -21 0 -5 -7 -9 -15 -9 -8 0 -20 -9 -27 -19 -6 -10 -17 -17 -24 -14 -7
3 -26 -2 -41 -10 -47 -26 -120 -58 -139 -61 -55 -11 -104 -28 -104 -36 0 -6
-12 -10 -28 -10 -15 0 -37 -7 -49 -15 -11 -8 -39 -17 -62 -21 -23 -4 -44 -11
-47 -15 -3 -5 -23 -9 -44 -9 -21 0 -40 -5 -42 -11 -2 -6 -17 -12 -33 -13 -17
-2 -37 -6 -45 -9 -28 -11 -174 -39 -232 -44 -32 -3 -58 -9 -58 -14 0 -5 -33
-9 -74 -9 -41 0 -78 -4 -81 -10 -3 -5 -44 -10 -91 -10 -49 0 -84 -4 -84 -10 0
-7 608 -10 1805 -10 l1805 0 0 1820 c0 1117 -4 1820 -9 1820 -5 0 -12 -42 -15
-92z"/>
</g>
</svg>
