<svg xmlns="http://www.w3.org/2000/svg" viewBox="0 0 20480 20480">
<g transform="translate(0,20480) scale(1,-1)" fill="#0d9488" stroke="none">
<path d="M4710 13800 l0 -1550 1888 0 c1797 0 1887 0 1889 -17 2 -10 4 -1262
6 -2783 4 -2765 4 -2765 25 -2876 27 -144 98 -359 156 -474 56 -110 138 -238
214 -334 62 -78 82 -97 96 -89 5 4 6 2 3 -4 -8 -13 97 -114 198 -190 155 -117
305 -198 476 -258 155 -54 203 -65 399 -90 283 -36 650 23 901 146 46 23 93
45 105 49 22 9 181 110 211 134 10 8 44 36 76 61 32 26 54 51 51 57 -4 6 -2 8
4 5 9 -6 47 29 163 152 54 57 167 223 218 321 111 214 178 449 195 690 3 41 5
1296 6 2788 l0 2712 1890 0 1890 0 0 1550 0 1550 -5530 0 -5530 0 0 -1550z
m10084 393 c9 -59 5 -953 -4 -958 -5 -3 -828 -5 -1829 -5 l-1821 0 0 -1308 0
-1307 -96 -170 c-104 -184 -229 -402 -334 -585 -74 -128 -77 -133 -235 -415
-61 -110 -132 -236 -158 -280 -25 -44 -49 -92 -52 -108 -6 -24 29 -91 248
-475 570 -999 639 -1160 624 -1474 -5 -132 -24 -212 -76 -323 -194 -418 -627
-610 -1091 -487 -178 47 -357 184 -475 361 -158 238 -195 499 -111 779 34 110
148 363 228 502 14 25 50 92 80 150 31 58 65 121 77 140 11 19 24 42 28 50 4
8 43 78 88 155 96 165 202 350 240 420 16 28 47 79 69 115 l41 65 3 2097 2
2098 -2252 0 c-1239 0 -2263 0 -2275 0 l-23 0 0 500 0 500 4549 0 4549 0 6
-37z"/>
</g>
</svg>
